<?xml version="1.0" encoding="UTF-8" standalone="no"?>
<!DOCTYPE svg PUBLIC "-//W3C//DTD SVG 1.1//EN"
 "http://www.w3.org/Graphics/SVG/1.1/DTD/svg11.dtd">
<!-- Generated by graphviz version 2.40.1 (20161225.0304)
 -->
<!-- Title: %3 Pages: 1 -->
<svg width="708pt" height="603pt"
 viewBox="0.00 0.00 708.41 603.00" xmlns="http://www.w3.org/2000/svg" xmlns:xlink="http://www.w3.org/1999/xlink">
<g id="graph0" class="graph" transform="scale(1 1) rotate(0) translate(4 599)">
<title>%3</title>
<polygon fill="#3f3f3f" stroke="transparent" points="-4,4 -4,-599 704.4087,-599 704.4087,4 -4,4"/>
<text text-anchor="middle" x="350.2044" y="-9.2" font-family="Times,serif" font-size="16.00" fill="#ffffff">Network Map</text>
<!-- R1 -->
<g id="node1" class="node">
<title>R1</title>
<polygon fill="#006699" stroke="#006699" points="249.4087,-99 173.4087,-99 173.4087,-26 249.4087,-26 249.4087,-99"/>
<text text-anchor="middle" x="211.4087" y="-58.8" font-family="Helvetica,sans-Serif" font-size="14.00" fill="#ffffff">R1</text>
</g>
<!-- SW1 -->
<g id="node6" class="node">
<title>SW1</title>
<polygon fill="#006699" stroke="#006699" points="255.9087,-223 166.9087,-223 166.9087,-150 255.9087,-150 255.9087,-223"/>
<text text-anchor="middle" x="211.4087" y="-182.8" font-family="Helvetica,sans-Serif" font-size="14.00" fill="#ffffff">SW1</text>
</g>
<!-- R1&#45;&#45;SW1 -->
<g id="edge1" class="edge">
<title>R1&#45;&#45;SW1</title>
<path fill="none" stroke="#00ff00" stroke-dasharray="5,2" d="M173.3406,-88.3239C164.4911,-96.3792 156.2501,-106.062 151.4087,-117 144.5698,-132.4509 153.6813,-147.0222 166.7067,-158.7932"/>
<text text-anchor="middle" x="201.4087" y="-120.8" font-family="Courier,monospace" font-size="14.00" fill="#ffffff"> &#160;&#160;&#160;&#160;&#160;&#160;&#160;&#160;&#160;&#160;&#160;</text>
<text text-anchor="middle" x="137.7067" y="-147.5932" font-family="Courier,monospace" font-size="14.00" fill="#ffffff">Eth 0/1</text>
<text text-anchor="middle" x="144.3406" y="-77.1239" font-family="Courier,monospace" font-size="14.00" fill="#ffffff">Eth 0/0</text>
</g>
<!-- R5 -->
<g id="node2" class="node">
<title>R5</title>
<polygon fill="#006699" stroke="#006699" points="295.4087,-471 219.4087,-471 219.4087,-398 295.4087,-398 295.4087,-471"/>
<text text-anchor="middle" x="257.4087" y="-430.8" font-family="Helvetica,sans-Serif" font-size="14.00" fill="#ffffff">R5</text>
</g>
<!-- R4 -->
<g id="node3" class="node">
<title>R4</title>
<polygon fill="#006699" stroke="#006699" points="171.4087,-595 95.4087,-595 95.4087,-522 171.4087,-522 171.4087,-595"/>
<text text-anchor="middle" x="133.4087" y="-554.8" font-family="Helvetica,sans-Serif" font-size="14.00" fill="#ffffff">R4</text>
</g>
<!-- R5&#45;&#45;R4 -->
<g id="edge9" class="edge">
<title>R5&#45;&#45;R4</title>
<path fill="none" stroke="#00ff00" stroke-dasharray="5,2" d="M219.1939,-444.0438C195.0021,-452.0651 165.0604,-466.0095 147.4087,-489 140.2129,-498.3722 136.4452,-510.4887 134.5464,-521.9733"/>
<text text-anchor="middle" x="197.4087" y="-492.8" font-family="Courier,monospace" font-size="14.00" fill="#ffffff"> &#160;&#160;&#160;&#160;&#160;&#160;&#160;&#160;&#160;&#160;&#160;</text>
<text text-anchor="middle" x="163.5464" y="-510.7733" font-family="Courier,monospace" font-size="14.00" fill="#ffffff">Eth 0/1</text>
<text text-anchor="middle" x="190.1939" y="-432.8438" font-family="Courier,monospace" font-size="14.00" fill="#ffffff">Eth 0/1</text>
</g>
<!-- R2 -->
<g id="node5" class="node">
<title>R2</title>
<polygon fill="#006699" stroke="#006699" points="483.4087,-347 407.4087,-347 407.4087,-274 483.4087,-274 483.4087,-347"/>
<text text-anchor="middle" x="445.4087" y="-306.8" font-family="Helvetica,sans-Serif" font-size="14.00" fill="#ffffff">R2</text>
</g>
<!-- R5&#45;&#45;R2 -->
<g id="edge8" class="edge">
<title>R5&#45;&#45;R2</title>
<path fill="none" stroke="#00ff00" stroke-dasharray="5,2" d="M295.4964,-413.344C312.5381,-403.5824 332.7299,-391.6039 350.4087,-380 369.5429,-367.4409 390.1182,-352.5682 407.2113,-339.8103"/>
<text text-anchor="middle" x="421.4087" y="-368.8" font-family="Courier,monospace" font-size="14.00" fill="#ffffff"> &#160;&#160;&#160;&#160;&#160;&#160;&#160;&#160;&#160;&#160;&#160;</text>
<text text-anchor="middle" x="378.2113" y="-328.6103" font-family="Courier,monospace" font-size="14.00" fill="#ffffff">Eth 0/1</text>
<text text-anchor="middle" x="324.4964" y="-402.144" font-family="Courier,monospace" font-size="14.00" fill="#ffffff">Eth 0/0</text>
</g>
<!-- R4&#45;&#45;R5 -->
<g id="edge7" class="edge">
<title>R4&#45;&#45;R5</title>
<path fill="none" stroke="#00ff00" stroke-dasharray="5,2" d="M171.5303,-551.3801C198.4627,-544.223 232.9318,-530.3175 251.4087,-504 258.0197,-494.5837 260.5503,-482.5852 261.1186,-471.2176"/>
<text text-anchor="middle" x="307.4087" y="-492.8" font-family="Courier,monospace" font-size="14.00" fill="#ffffff"> &#160;&#160;&#160;&#160;&#160;&#160;&#160;&#160;&#160;&#160;&#160;</text>
<text text-anchor="middle" x="232.1186" y="-475.0176" font-family="Courier,monospace" font-size="14.00" fill="#ffffff">Eth 0/1</text>
<text text-anchor="middle" x="200.5303" y="-540.1801" font-family="Courier,monospace" font-size="14.00" fill="#ffffff">Eth 0/1</text>
</g>
<!-- R4&#45;&#45;SW1 -->
<g id="edge6" class="edge">
<title>R4&#45;&#45;SW1</title>
<path fill="none" stroke="#00ff00" stroke-dasharray="5,2" d="M124.5021,-521.7804C111.5483,-459.9883 93.7994,-332.9655 140.4087,-241 146.3798,-229.2184 156.213,-219.2522 166.6855,-211.1947"/>
<text text-anchor="middle" x="161.4087" y="-368.8" font-family="Courier,monospace" font-size="14.00" fill="#ffffff"> &#160;&#160;&#160;&#160;&#160;&#160;&#160;&#160;&#160;&#160;&#160;</text>
<text text-anchor="middle" x="137.6855" y="-214.9947" font-family="Courier,monospace" font-size="14.00" fill="#ffffff">Eth 0/4</text>
<text text-anchor="middle" x="95.5021" y="-510.5804" font-family="Courier,monospace" font-size="14.00" fill="#ffffff">Eth 0/0</text>
</g>
<!-- R3 -->
<g id="node4" class="node">
<title>R3</title>
<polygon fill="#006699" stroke="#006699" points="266.4087,-347 190.4087,-347 190.4087,-274 266.4087,-274 266.4087,-347"/>
<text text-anchor="middle" x="228.4087" y="-306.8" font-family="Helvetica,sans-Serif" font-size="14.00" fill="#ffffff">R3</text>
</g>
<!-- R3&#45;&#45;SW1 -->
<g id="edge5" class="edge">
<title>R3&#45;&#45;SW1</title>
<path fill="none" stroke="#00ff00" stroke-dasharray="5,2" d="M249.6224,-273.7233C253.2608,-263.1625 254.8905,-251.6286 251.4087,-241 249.3991,-234.8656 246.4067,-228.8514 242.9466,-223.189"/>
<text text-anchor="middle" x="302.4087" y="-244.8" font-family="Courier,monospace" font-size="14.00" fill="#ffffff"> &#160;&#160;&#160;&#160;&#160;&#160;&#160;&#160;&#160;&#160;&#160;</text>
<text text-anchor="middle" x="213.9466" y="-226.989" font-family="Courier,monospace" font-size="14.00" fill="#ffffff">Eth 0/3</text>
<text text-anchor="middle" x="220.6224" y="-262.5233" font-family="Courier,monospace" font-size="14.00" fill="#ffffff">Eth 0/0</text>
</g>
<!-- R2&#45;&#45;R5 -->
<g id="edge3" class="edge">
<title>R2&#45;&#45;R5</title>
<path fill="none" stroke="#00ff00" stroke-dasharray="5,2" d="M407.3988,-315.6545C356.2075,-323.4647 269.3202,-340.0782 250.4087,-365 243.3712,-374.2741 242.5962,-386.366 244.3765,-397.8583"/>
<text text-anchor="middle" x="300.4087" y="-368.8" font-family="Courier,monospace" font-size="14.00" fill="#ffffff"> &#160;&#160;&#160;&#160;&#160;&#160;&#160;&#160;&#160;&#160;&#160;</text>
<text text-anchor="middle" x="215.3765" y="-386.6583" font-family="Courier,monospace" font-size="14.00" fill="#ffffff">Eth 0/0</text>
<text text-anchor="middle" x="378.3988" y="-304.4545" font-family="Courier,monospace" font-size="14.00" fill="#ffffff">Eth 0/1</text>
</g>
<!-- R2&#45;&#45;SW1 -->
<g id="edge2" class="edge">
<title>R2&#45;&#45;SW1</title>
<path fill="none" stroke="#00ff00" stroke-dasharray="5,2" d="M483.6036,-284.2927C498.2315,-271.0741 508.9368,-254.9323 497.4087,-241 467.28,-204.5879 328.5623,-192.2912 255.9735,-188.3078"/>
<text text-anchor="middle" x="551.4087" y="-244.8" font-family="Courier,monospace" font-size="14.00" fill="#ffffff"> &#160;&#160;&#160;&#160;&#160;&#160;&#160;&#160;&#160;&#160;&#160;</text>
<text text-anchor="middle" x="284.9735" y="-177.1078" font-family="Courier,monospace" font-size="14.00" fill="#ffffff">Eth 0/2</text>
<text text-anchor="middle" x="512.6036" y="-273.0927" font-family="Courier,monospace" font-size="14.00" fill="#ffffff">Eth 0/0</text>
</g>
<!-- R6 -->
<g id="node7" class="node">
<title>R6</title>
<polygon fill="#006699" stroke="#006699" points="594.4087,-471 518.4087,-471 518.4087,-398 594.4087,-398 594.4087,-471"/>
<text text-anchor="middle" x="556.4087" y="-430.8" font-family="Helvetica,sans-Serif" font-size="14.00" fill="#ffffff">R6</text>
</g>
<!-- R2&#45;&#45;R6 -->
<g id="edge4" class="edge">
<title>R2&#45;&#45;R6</title>
<path fill="none" stroke="#00ff00" stroke-dasharray="5,2" d="M470.2978,-347.2865C478.2148,-358.1738 487.2938,-369.8807 496.4087,-380 503.0957,-387.4238 510.6886,-394.9218 518.1707,-401.8819"/>
<text text-anchor="middle" x="546.4087" y="-368.8" font-family="Courier,monospace" font-size="14.00" fill="#ffffff"> &#160;&#160;&#160;&#160;&#160;&#160;&#160;&#160;&#160;&#160;&#160;</text>
<text text-anchor="middle" x="489.1707" y="-390.6819" font-family="Courier,monospace" font-size="14.00" fill="#ffffff">Eth 0/1</text>
<text text-anchor="middle" x="441.2978" y="-351.0865" font-family="Courier,monospace" font-size="14.00" fill="#ffffff">Eth 0/2</text>
</g>
<!-- SW1&#45;&#45;R1 -->
<g id="edge11" class="edge">
<title>SW1&#45;&#45;R1</title>
<path fill="none" stroke="#00ff00" stroke-dasharray="5,2" d="M246.0388,-149.9505C251.9204,-139.6852 255.0926,-128.2454 251.4087,-117 249.3991,-110.8656 246.4067,-104.8514 242.9466,-99.189"/>
<text text-anchor="middle" x="302.4087" y="-120.8" font-family="Courier,monospace" font-size="14.00" fill="#ffffff"> &#160;&#160;&#160;&#160;&#160;&#160;&#160;&#160;&#160;&#160;&#160;</text>
<text text-anchor="middle" x="213.9466" y="-102.989" font-family="Courier,monospace" font-size="14.00" fill="#ffffff">Eth 0/0</text>
<text text-anchor="middle" x="217.0388" y="-138.7505" font-family="Courier,monospace" font-size="14.00" fill="#ffffff">Eth 0/1</text>
</g>
<!-- SW1&#45;&#45;R4 -->
<g id="edge14" class="edge">
<title>SW1&#45;&#45;R4</title>
<path fill="none" stroke="#00ff00" stroke-dasharray="5,2" d="M166.5977,-209.0572C116.0229,-237.4483 36.8387,-291.5355 6.4087,-365 -20.5018,-429.9676 48.7266,-496.5349 95.2292,-532.1555"/>
<text text-anchor="middle" x="56.4087" y="-368.8" font-family="Courier,monospace" font-size="14.00" fill="#ffffff"> &#160;&#160;&#160;&#160;&#160;&#160;&#160;&#160;&#160;&#160;&#160;</text>
<text text-anchor="middle" x="66.2292" y="-535.9555" font-family="Courier,monospace" font-size="14.00" fill="#ffffff">Eth 0/0</text>
<text text-anchor="middle" x="137.5977" y="-197.8572" font-family="Courier,monospace" font-size="14.00" fill="#ffffff">Eth 0/4</text>
</g>
<!-- SW1&#45;&#45;R3 -->
<g id="edge13" class="edge">
<title>SW1&#45;&#45;R3</title>
<path fill="none" stroke="#00ff00" stroke-dasharray="5,2" d="M166.8987,-211.0539C150.7687,-223.3609 138.4664,-239.2053 147.4087,-256 156.5694,-273.2049 173.8454,-285.9503 190.097,-294.7708"/>
<text text-anchor="middle" x="197.4087" y="-244.8" font-family="Courier,monospace" font-size="14.00" fill="#ffffff"> &#160;&#160;&#160;&#160;&#160;&#160;&#160;&#160;&#160;&#160;&#160;</text>
<text text-anchor="middle" x="161.097" y="-283.5708" font-family="Courier,monospace" font-size="14.00" fill="#ffffff">Eth 0/0</text>
<text text-anchor="middle" x="137.8987" y="-199.8539" font-family="Courier,monospace" font-size="14.00" fill="#ffffff">Eth 0/3</text>
</g>
<!-- SW1&#45;&#45;R2 -->
<g id="edge12" class="edge">
<title>SW1&#45;&#45;R2</title>
<path fill="none" stroke="#00ff00" stroke-dasharray="5,2" d="M256.0943,-199.4027C285.5817,-208.8422 324.5109,-223.1051 356.4087,-241 374.1902,-250.9756 392.2127,-264.3162 407.3458,-276.6414"/>
<text text-anchor="middle" x="429.4087" y="-244.8" font-family="Courier,monospace" font-size="14.00" fill="#ffffff"> &#160;&#160;&#160;&#160;&#160;&#160;&#160;&#160;&#160;&#160;&#160;</text>
<text text-anchor="middle" x="378.3458" y="-265.4414" font-family="Courier,monospace" font-size="14.00" fill="#ffffff">Eth 0/0</text>
<text text-anchor="middle" x="285.0943" y="-203.2027" font-family="Courier,monospace" font-size="14.00" fill="#ffffff">Eth 0/2</text>
</g>
<!-- R6&#45;&#45;R2 -->
<g id="edge10" class="edge">
<title>R6&#45;&#45;R2</title>
<path fill="none" stroke="#00ff00" stroke-dasharray="5,2" d="M594.136,-397.6644C600.8029,-386.888 603.6091,-375.2539 596.4087,-365 583.155,-346.1258 523.9287,-328.8775 483.7102,-319.0412"/>
<text text-anchor="middle" x="650.4087" y="-368.8" font-family="Courier,monospace" font-size="14.00" fill="#ffffff"> &#160;&#160;&#160;&#160;&#160;&#160;&#160;&#160;&#160;&#160;&#160;</text>
<text text-anchor="middle" x="512.7102" y="-307.8412" font-family="Courier,monospace" font-size="14.00" fill="#ffffff">Eth 0/2</text>
<text text-anchor="middle" x="565.136" y="-386.4644" font-family="Courier,monospace" font-size="14.00" fill="#ffffff">Eth 0/1</text>
</g>
</g>
</svg>
