<?xml version="1.0" encoding="UTF-8" standalone="no"?>
<!DOCTYPE svg PUBLIC "-//W3C//DTD SVG 1.1//EN"
 "http://www.w3.org/Graphics/SVG/1.1/DTD/svg11.dtd">
<!-- Generated by graphviz version 2.40.1 (20161225.0304)
 -->
<!-- Title: %3 Pages: 1 -->
<svg width="906pt" height="479pt"
 viewBox="0.00 0.00 905.58 479.00" xmlns="http://www.w3.org/2000/svg" xmlns:xlink="http://www.w3.org/1999/xlink">
<g id="graph0" class="graph" transform="scale(1 1) rotate(0) translate(4 475)">
<title>%3</title>
<polygon fill="#3f3f3f" stroke="transparent" points="-4,4 -4,-475 901.5798,-475 901.5798,4 -4,4"/>
<text text-anchor="middle" x="448.7899" y="-9.2" font-family="Times,serif" font-size="16.00" fill="#ffffff">Network Map</text>
<!-- R4 -->
<g id="node1" class="node">
<title>R4</title>
<polygon fill="#006699" stroke="#006699" points="666.5798,-99 590.5798,-99 590.5798,-26 666.5798,-26 666.5798,-99"/>
<text text-anchor="middle" x="628.5798" y="-58.8" font-family="Helvetica,sans-Serif" font-size="14.00" fill="#ffffff">R4</text>
</g>
<!-- SW1 -->
<g id="node3" class="node">
<title>SW1</title>
<polygon fill="#006699" stroke="#006699" points="411.0798,-223 322.0798,-223 322.0798,-150 411.0798,-150 411.0798,-223"/>
<text text-anchor="middle" x="366.5798" y="-182.8" font-family="Helvetica,sans-Serif" font-size="14.00" fill="#ffffff">SW1</text>
</g>
<!-- R4&#45;&#45;SW1 -->
<g id="edge6" class="edge">
<title>R4&#45;&#45;SW1</title>
<path fill="none" stroke="#00ff00" stroke-dasharray="5,2" d="M590.5201,-69.4503C553.0492,-77.3369 494.9985,-92.4038 449.5798,-117 433.3838,-125.7709 417.4246,-138.0114 403.8943,-149.7799"/>
<text text-anchor="middle" x="499.5798" y="-120.8" font-family="Courier,monospace" font-size="14.00" fill="#ffffff"> &#160;&#160;&#160;&#160;&#160;&#160;&#160;&#160;&#160;&#160;&#160;</text>
<text text-anchor="middle" x="374.8943" y="-138.5799" font-family="Courier,monospace" font-size="14.00" fill="#ffffff">Eth 0/4</text>
<text text-anchor="middle" x="561.5201" y="-58.2503" font-family="Courier,monospace" font-size="14.00" fill="#ffffff">Eth 0/0</text>
</g>
<!-- R5 -->
<g id="node7" class="node">
<title>R5</title>
<polygon fill="#006699" stroke="#006699" points="682.5798,-471 606.5798,-471 606.5798,-398 682.5798,-398 682.5798,-471"/>
<text text-anchor="middle" x="644.5798" y="-430.8" font-family="Helvetica,sans-Serif" font-size="14.00" fill="#ffffff">R5</text>
</g>
<!-- R4&#45;&#45;R5 -->
<g id="edge7" class="edge">
<title>R4&#45;&#45;R5</title>
<path fill="none" stroke="#00ff00" stroke-dasharray="5,2" d="M664.6392,-99.1631C668.5927,-104.787 672.0829,-110.7977 674.5798,-117 713.0386,-212.532 679.7752,-336.8501 658.7088,-397.6938"/>
<text text-anchor="middle" x="740.5798" y="-244.8" font-family="Courier,monospace" font-size="14.00" fill="#ffffff"> &#160;&#160;&#160;&#160;&#160;&#160;&#160;&#160;&#160;&#160;&#160;</text>
<text text-anchor="middle" x="629.7088" y="-386.4938" font-family="Courier,monospace" font-size="14.00" fill="#ffffff">Eth 0/1</text>
<text text-anchor="middle" x="635.6392" y="-102.9631" font-family="Courier,monospace" font-size="14.00" fill="#ffffff">Eth 0/1</text>
</g>
<!-- R2 -->
<g id="node2" class="node">
<title>R2</title>
<polygon fill="#006699" stroke="#006699" points="156.5798,-347 80.5798,-347 80.5798,-274 156.5798,-274 156.5798,-347"/>
<text text-anchor="middle" x="118.5798" y="-306.8" font-family="Helvetica,sans-Serif" font-size="14.00" fill="#ffffff">R2</text>
</g>
<!-- R2&#45;&#45;SW1 -->
<g id="edge2" class="edge">
<title>R2&#45;&#45;SW1</title>
<path fill="none" stroke="#00ff00" stroke-dasharray="5,2" d="M108.7236,-273.9255C107.7432,-262.3051 109.2349,-250.1186 116.5798,-241 141.903,-209.5617 257.2804,-195.2929 322.078,-189.6606"/>
<text text-anchor="middle" x="166.5798" y="-244.8" font-family="Courier,monospace" font-size="14.00" fill="#ffffff"> &#160;&#160;&#160;&#160;&#160;&#160;&#160;&#160;&#160;&#160;&#160;</text>
<text text-anchor="middle" x="293.078" y="-178.4606" font-family="Courier,monospace" font-size="14.00" fill="#ffffff">Eth 0/2</text>
<text text-anchor="middle" x="79.7236" y="-262.7255" font-family="Courier,monospace" font-size="14.00" fill="#ffffff">Eth 0/0</text>
</g>
<!-- R6 -->
<g id="node6" class="node">
<title>R6</title>
<polygon fill="#006699" stroke="#006699" points="157.5798,-471 81.5798,-471 81.5798,-398 157.5798,-398 157.5798,-471"/>
<text text-anchor="middle" x="119.5798" y="-430.8" font-family="Helvetica,sans-Serif" font-size="14.00" fill="#ffffff">R6</text>
</g>
<!-- R2&#45;&#45;R6 -->
<g id="edge4" class="edge">
<title>R2&#45;&#45;R6</title>
<path fill="none" stroke="#00ff00" stroke-dasharray="5,2" d="M80.3375,-332.7939C64.1087,-345.3607 50.5706,-362.1039 58.5798,-380 63.6269,-391.2773 72.2887,-401.184 81.5254,-409.3492"/>
<text text-anchor="middle" x="108.5798" y="-368.8" font-family="Courier,monospace" font-size="14.00" fill="#ffffff"> &#160;&#160;&#160;&#160;&#160;&#160;&#160;&#160;&#160;&#160;&#160;</text>
<text text-anchor="middle" x="52.5254" y="-398.1492" font-family="Courier,monospace" font-size="14.00" fill="#ffffff">Eth 0/1</text>
<text text-anchor="middle" x="51.3375" y="-321.5939" font-family="Courier,monospace" font-size="14.00" fill="#ffffff">Eth 0/2</text>
</g>
<!-- R2&#45;&#45;R5 -->
<g id="edge3" class="edge">
<title>R2&#45;&#45;R5</title>
<path fill="none" stroke="#00ff00" stroke-dasharray="5,2" d="M156.6049,-322.5826C180.8057,-330.0738 212.884,-339.638 241.5798,-347 374.7309,-381.1603 534.8429,-413.2989 606.5769,-427.2332"/>
<text text-anchor="middle" x="424.5798" y="-368.8" font-family="Courier,monospace" font-size="14.00" fill="#ffffff"> &#160;&#160;&#160;&#160;&#160;&#160;&#160;&#160;&#160;&#160;&#160;</text>
<text text-anchor="middle" x="577.5769" y="-431.0332" font-family="Courier,monospace" font-size="14.00" fill="#ffffff">Eth 0/0</text>
<text text-anchor="middle" x="185.6049" y="-311.3826" font-family="Courier,monospace" font-size="14.00" fill="#ffffff">Eth 0/1</text>
</g>
<!-- SW1&#45;&#45;R4 -->
<g id="edge14" class="edge">
<title>SW1&#45;&#45;R4</title>
<path fill="none" stroke="#00ff00" stroke-dasharray="5,2" d="M411.1989,-178.8269C449.615,-170.9413 505.6385,-156.3189 549.5798,-132 565.2431,-123.3313 580.4912,-111.1147 593.3467,-99.3369"/>
<text text-anchor="middle" x="620.5798" y="-120.8" font-family="Courier,monospace" font-size="14.00" fill="#ffffff"> &#160;&#160;&#160;&#160;&#160;&#160;&#160;&#160;&#160;&#160;&#160;</text>
<text text-anchor="middle" x="564.3467" y="-103.1369" font-family="Courier,monospace" font-size="14.00" fill="#ffffff">Eth 0/0</text>
<text text-anchor="middle" x="440.1989" y="-167.6269" font-family="Courier,monospace" font-size="14.00" fill="#ffffff">Eth 0/4</text>
</g>
<!-- SW1&#45;&#45;R2 -->
<g id="edge12" class="edge">
<title>SW1&#45;&#45;R2</title>
<path fill="none" stroke="#00ff00" stroke-dasharray="5,2" d="M321.9628,-190.0301C230.1486,-197.7472 26.9307,-217.3363 6.5798,-241 -18.7863,-270.4954 38.9266,-291.4652 80.5651,-302.2257"/>
<text text-anchor="middle" x="56.5798" y="-244.8" font-family="Courier,monospace" font-size="14.00" fill="#ffffff"> &#160;&#160;&#160;&#160;&#160;&#160;&#160;&#160;&#160;&#160;&#160;</text>
<text text-anchor="middle" x="51.5651" y="-291.0257" font-family="Courier,monospace" font-size="14.00" fill="#ffffff">Eth 0/0</text>
<text text-anchor="middle" x="292.9628" y="-193.8301" font-family="Courier,monospace" font-size="14.00" fill="#ffffff">Eth 0/2</text>
</g>
<!-- R3 -->
<g id="node4" class="node">
<title>R3</title>
<polygon fill="#006699" stroke="#006699" points="326.5798,-347 250.5798,-347 250.5798,-274 326.5798,-274 326.5798,-347"/>
<text text-anchor="middle" x="288.5798" y="-306.8" font-family="Helvetica,sans-Serif" font-size="14.00" fill="#ffffff">R3</text>
</g>
<!-- SW1&#45;&#45;R3 -->
<g id="edge13" class="edge">
<title>SW1&#45;&#45;R3</title>
<path fill="none" stroke="#00ff00" stroke-dasharray="5,2" d="M322.037,-197.682C284.826,-208.0309 236.0595,-224.298 224.5798,-241 212.1301,-259.1135 230.2488,-277.3065 250.3457,-290.5329"/>
<text text-anchor="middle" x="274.5798" y="-244.8" font-family="Courier,monospace" font-size="14.00" fill="#ffffff"> &#160;&#160;&#160;&#160;&#160;&#160;&#160;&#160;&#160;&#160;&#160;</text>
<text text-anchor="middle" x="221.3457" y="-279.3329" font-family="Courier,monospace" font-size="14.00" fill="#ffffff">Eth 0/0</text>
<text text-anchor="middle" x="293.037" y="-201.482" font-family="Courier,monospace" font-size="14.00" fill="#ffffff">Eth 0/3</text>
</g>
<!-- R1 -->
<g id="node5" class="node">
<title>R1</title>
<polygon fill="#006699" stroke="#006699" points="572.5798,-347 496.5798,-347 496.5798,-274 572.5798,-274 572.5798,-347"/>
<text text-anchor="middle" x="534.5798" y="-306.8" font-family="Helvetica,sans-Serif" font-size="14.00" fill="#ffffff">R1</text>
</g>
<!-- SW1&#45;&#45;R1 -->
<g id="edge11" class="edge">
<title>SW1&#45;&#45;R1</title>
<path fill="none" stroke="#00ff00" stroke-dasharray="5,2" d="M411.3215,-218.304C421.6242,-225.7052 432.5115,-233.5887 442.5798,-241 460.3129,-254.0532 479.7927,-268.7207 496.244,-281.2051"/>
<text text-anchor="middle" x="510.5798" y="-244.8" font-family="Courier,monospace" font-size="14.00" fill="#ffffff"> &#160;&#160;&#160;&#160;&#160;&#160;&#160;&#160;&#160;&#160;&#160;</text>
<text text-anchor="middle" x="467.244" y="-270.0051" font-family="Courier,monospace" font-size="14.00" fill="#ffffff">Eth 0/0</text>
<text text-anchor="middle" x="440.3215" y="-207.104" font-family="Courier,monospace" font-size="14.00" fill="#ffffff">Eth 0/1</text>
</g>
<!-- R3&#45;&#45;SW1 -->
<g id="edge5" class="edge">
<title>R3&#45;&#45;SW1</title>
<path fill="none" stroke="#00ff00" stroke-dasharray="5,2" d="M316.5804,-273.7286C320.7333,-267.886 324.862,-261.842 328.5798,-256 335.2248,-245.5585 341.8941,-233.8687 347.7495,-223.0989"/>
<text text-anchor="middle" x="388.5798" y="-244.8" font-family="Courier,monospace" font-size="14.00" fill="#ffffff"> &#160;&#160;&#160;&#160;&#160;&#160;&#160;&#160;&#160;&#160;&#160;</text>
<text text-anchor="middle" x="318.7495" y="-226.8989" font-family="Courier,monospace" font-size="14.00" fill="#ffffff">Eth 0/3</text>
<text text-anchor="middle" x="287.5804" y="-262.5286" font-family="Courier,monospace" font-size="14.00" fill="#ffffff">Eth 0/0</text>
</g>
<!-- R1&#45;&#45;SW1 -->
<g id="edge1" class="edge">
<title>R1&#45;&#45;SW1</title>
<path fill="none" stroke="#00ff00" stroke-dasharray="5,2" d="M572.4291,-273.9603C579.4397,-262.9673 582.4049,-251.1396 574.5798,-241 554.7947,-215.3629 466.2883,-199.4429 411.298,-191.8446"/>
<text text-anchor="middle" x="628.5798" y="-244.8" font-family="Courier,monospace" font-size="14.00" fill="#ffffff"> &#160;&#160;&#160;&#160;&#160;&#160;&#160;&#160;&#160;&#160;&#160;</text>
<text text-anchor="middle" x="440.298" y="-180.6446" font-family="Courier,monospace" font-size="14.00" fill="#ffffff">Eth 0/1</text>
<text text-anchor="middle" x="543.4291" y="-262.7603" font-family="Courier,monospace" font-size="14.00" fill="#ffffff">Eth 0/0</text>
</g>
<!-- R6&#45;&#45;R2 -->
<g id="edge10" class="edge">
<title>R6&#45;&#45;R2</title>
<path fill="none" stroke="#00ff00" stroke-dasharray="5,2" d="M153.437,-397.8577C159.1714,-387.5926 162.241,-376.1761 158.5798,-365 156.5703,-358.8656 153.5779,-352.8514 150.1177,-347.189"/>
<text text-anchor="middle" x="210.5798" y="-368.8" font-family="Courier,monospace" font-size="14.00" fill="#ffffff"> &#160;&#160;&#160;&#160;&#160;&#160;&#160;&#160;&#160;&#160;&#160;</text>
<text text-anchor="middle" x="121.1177" y="-350.989" font-family="Courier,monospace" font-size="14.00" fill="#ffffff">Eth 0/2</text>
<text text-anchor="middle" x="124.437" y="-386.6577" font-family="Courier,monospace" font-size="14.00" fill="#ffffff">Eth 0/1</text>
</g>
<!-- R5&#45;&#45;R4 -->
<g id="edge9" class="edge">
<title>R5&#45;&#45;R4</title>
<path fill="none" stroke="#00ff00" stroke-dasharray="5,2" d="M682.8697,-412.7492C735.4825,-379.7224 820.8121,-313.0983 794.5798,-241 770.5605,-174.984 707.893,-119.5284 666.7987,-88.6955"/>
<text text-anchor="middle" x="847.5798" y="-244.8" font-family="Courier,monospace" font-size="14.00" fill="#ffffff"> &#160;&#160;&#160;&#160;&#160;&#160;&#160;&#160;&#160;&#160;&#160;</text>
<text text-anchor="middle" x="695.7987" y="-77.4955" font-family="Courier,monospace" font-size="14.00" fill="#ffffff">Eth 0/1</text>
<text text-anchor="middle" x="711.8697" y="-401.5492" font-family="Courier,monospace" font-size="14.00" fill="#ffffff">Eth 0/1</text>
</g>
<!-- R5&#45;&#45;R2 -->
<g id="edge8" class="edge">
<title>R5&#45;&#45;R2</title>
<path fill="none" stroke="#00ff00" stroke-dasharray="5,2" d="M606.5317,-414.4234C573.6322,-398.0877 524.2961,-376.0013 478.5798,-365 375.8751,-340.2849 345.4692,-366.1342 241.5798,-347 212.6638,-341.6743 180.8655,-332.1365 156.8452,-324.1463"/>
<text text-anchor="middle" x="576.5798" y="-368.8" font-family="Courier,monospace" font-size="14.00" fill="#ffffff"> &#160;&#160;&#160;&#160;&#160;&#160;&#160;&#160;&#160;&#160;&#160;</text>
<text text-anchor="middle" x="185.8452" y="-327.9463" font-family="Courier,monospace" font-size="14.00" fill="#ffffff">Eth 0/1</text>
<text text-anchor="middle" x="577.5317" y="-403.2234" font-family="Courier,monospace" font-size="14.00" fill="#ffffff">Eth 0/0</text>
</g>
</g>
</svg>
