<?xml version="1.0" encoding="UTF-8" standalone="no"?>
<!DOCTYPE svg PUBLIC "-//W3C//DTD SVG 1.1//EN"
 "http://www.w3.org/Graphics/SVG/1.1/DTD/svg11.dtd">
<!-- Generated by graphviz version 2.40.1 (20161225.0304)
 -->
<!-- Title: %3 Pages: 1 -->
<svg width="772pt" height="231pt"
 viewBox="0.00 0.00 771.97 231.00" xmlns="http://www.w3.org/2000/svg" xmlns:xlink="http://www.w3.org/1999/xlink">
<g id="graph0" class="graph" transform="scale(1 1) rotate(0) translate(4 227)">
<title>%3</title>
<polygon fill="#333333" stroke="transparent" points="-4,4 -4,-227 767.9678,-227 767.9678,4 -4,4"/>
<text text-anchor="middle" x="381.9839" y="-9.2" font-family="Times,serif" font-size="16.00" fill="#ffffff">Network Map</text>
<!-- SW2 -->
<g id="node1" class="node">
<title>SW2</title>
<polygon fill="#006699" stroke="#006699" points="107.4678,-223 18.4678,-223 18.4678,-150 107.4678,-150 107.4678,-223"/>
<text text-anchor="middle" x="62.9678" y="-182.8" font-family="Helvetica,sans-Serif" font-size="14.00" fill="#ffffff">SW2</text>
</g>
<!-- SW1 -->
<g id="node2" class="node">
<title>SW1</title>
<polygon fill="#006699" stroke="#006699" points="353.4678,-223 264.4678,-223 264.4678,-150 353.4678,-150 353.4678,-223"/>
<text text-anchor="middle" x="308.9678" y="-182.8" font-family="Helvetica,sans-Serif" font-size="14.00" fill="#ffffff">SW1</text>
</g>
<!-- R1 -->
<g id="node3" class="node">
<title>R1</title>
<polygon fill="#006699" stroke="#006699" points="346.9678,-99 270.9678,-99 270.9678,-26 346.9678,-26 346.9678,-99"/>
<text text-anchor="middle" x="308.9678" y="-58.8" font-family="Helvetica,sans-Serif" font-size="14.00" fill="#ffffff">R1</text>
</g>
<!-- R1&#45;&#45;SW1 -->
<g id="edge1" class="edge">
<title>R1&#45;&#45;SW1</title>
<path fill="none" stroke="#00ff00" stroke-dasharray="5,2" d="M308.9678,-99.0334C308.9678,-115.0358 308.9678,-133.7778 308.9678,-149.7992"/>
<text text-anchor="middle" x="358.9678" y="-120.8" font-family="Courier,monospace" font-size="14.00" fill="#ffffff"> &#160;&#160;&#160;&#160;&#160;&#160;&#160;&#160;&#160;&#160;&#160;</text>
<text text-anchor="middle" x="283.9678" y="-138.5992" font-family="Courier,monospace" font-size="14.00" fill="#ffffff">Eth0/1</text>
<text text-anchor="middle" x="283.9678" y="-102.8334" font-family="Courier,monospace" font-size="14.00" fill="#ffffff">Eth0/0</text>
</g>
<!-- R3 -->
<g id="node4" class="node">
<title>R3</title>
<polygon fill="#006699" stroke="#006699" points="592.9678,-99 516.9678,-99 516.9678,-26 592.9678,-26 592.9678,-99"/>
<text text-anchor="middle" x="554.9678" y="-58.8" font-family="Helvetica,sans-Serif" font-size="14.00" fill="#ffffff">R3</text>
</g>
<!-- R3&#45;&#45;SW1 -->
<g id="edge4" class="edge">
<title>R3&#45;&#45;SW1</title>
<path fill="none" stroke="#00ff00" stroke-dasharray="5,2" d="M516.8002,-81.7389C472.67,-103.9834 400.1341,-140.5463 353.477,-164.0645"/>
<text text-anchor="middle" x="496.9678" y="-120.8" font-family="Courier,monospace" font-size="14.00" fill="#ffffff"> &#160;&#160;&#160;&#160;&#160;&#160;&#160;&#160;&#160;&#160;&#160;</text>
<text text-anchor="middle" x="378.477" y="-152.8645" font-family="Courier,monospace" font-size="14.00" fill="#ffffff">Eth0/3</text>
<text text-anchor="middle" x="491.8002" y="-70.5389" font-family="Courier,monospace" font-size="14.00" fill="#ffffff">Eth0/0</text>
</g>
<!-- R5 -->
<g id="node5" class="node">
<title>R5</title>
<polygon fill="#006699" stroke="#006699" points="592.9678,-223 516.9678,-223 516.9678,-150 592.9678,-150 592.9678,-223"/>
<text text-anchor="middle" x="554.9678" y="-182.8" font-family="Helvetica,sans-Serif" font-size="14.00" fill="#ffffff">R5</text>
</g>
<!-- R3&#45;&#45;R5 -->
<g id="edge6" class="edge">
<title>R3&#45;&#45;R5</title>
<path fill="none" stroke="#00ff00" stroke-dasharray="5,2" d="M554.9678,-99.0334C554.9678,-115.0358 554.9678,-133.7778 554.9678,-149.7992"/>
<text text-anchor="middle" x="604.9678" y="-120.8" font-family="Courier,monospace" font-size="14.00" fill="#ffffff"> &#160;&#160;&#160;&#160;&#160;&#160;&#160;&#160;&#160;&#160;&#160;</text>
<text text-anchor="middle" x="529.9678" y="-138.5992" font-family="Courier,monospace" font-size="14.00" fill="#ffffff">Eth0/0</text>
<text text-anchor="middle" x="529.9678" y="-102.8334" font-family="Courier,monospace" font-size="14.00" fill="#ffffff">Eth0/2</text>
</g>
<!-- R4 -->
<g id="node7" class="node">
<title>R4</title>
<polygon fill="#006699" stroke="#006699" points="715.9678,-223 639.9678,-223 639.9678,-150 715.9678,-150 715.9678,-223"/>
<text text-anchor="middle" x="677.9678" y="-182.8" font-family="Helvetica,sans-Serif" font-size="14.00" fill="#ffffff">R4</text>
</g>
<!-- R3&#45;&#45;R4 -->
<g id="edge5" class="edge">
<title>R3&#45;&#45;R4</title>
<path fill="none" stroke="#00ff00" stroke-dasharray="5,2" d="M593.2736,-75.0133C614.4589,-83.7261 639.7089,-97.3511 655.9678,-117 663.7135,-126.3607 668.7437,-138.4743 672.0057,-149.9598"/>
<text text-anchor="middle" x="713.9678" y="-120.8" font-family="Courier,monospace" font-size="14.00" fill="#ffffff"> &#160;&#160;&#160;&#160;&#160;&#160;&#160;&#160;&#160;&#160;&#160;</text>
<text text-anchor="middle" x="647.0057" y="-138.7598" font-family="Courier,monospace" font-size="14.00" fill="#ffffff">Eth0/0</text>
<text text-anchor="middle" x="618.2736" y="-63.8133" font-family="Courier,monospace" font-size="14.00" fill="#ffffff">Eth0/1</text>
</g>
<!-- R2 -->
<g id="node6" class="node">
<title>R2</title>
<polygon fill="#006699" stroke="#006699" points="162.9678,-99 86.9678,-99 86.9678,-26 162.9678,-26 162.9678,-99"/>
<text text-anchor="middle" x="124.9678" y="-58.8" font-family="Helvetica,sans-Serif" font-size="14.00" fill="#ffffff">R2</text>
</g>
<!-- R2&#45;&#45;SW2 -->
<g id="edge3" class="edge">
<title>R2&#45;&#45;SW2</title>
<path fill="none" stroke="#00ff00" stroke-dasharray="5,2" d="M86.701,-87.9809C77.5844,-96.0919 69.037,-105.8885 63.9678,-117 59.36,-127.1004 57.9349,-138.9171 58,-149.912"/>
<text text-anchor="middle" x="113.9678" y="-120.8" font-family="Courier,monospace" font-size="14.00" fill="#ffffff"> &#160;&#160;&#160;&#160;&#160;&#160;&#160;&#160;&#160;&#160;&#160;</text>
<text text-anchor="middle" x="29" y="-138.712" font-family="Courier,monospace" font-size="14.00" fill="#ffffff">Eth0/11</text>
<text text-anchor="middle" x="61.701" y="-76.7809" font-family="Courier,monospace" font-size="14.00" fill="#ffffff">Eth0/1</text>
</g>
<!-- R2&#45;&#45;SW1 -->
<g id="edge2" class="edge">
<title>R2&#45;&#45;SW1</title>
<path fill="none" stroke="#00ff00" stroke-dasharray="5,2" d="M163.3711,-99.0562C176.1043,-110.289 190.6844,-122.2494 204.9678,-132 223.5713,-144.6997 245.4914,-156.59 264.3988,-166.0036"/>
<text text-anchor="middle" x="254.9678" y="-120.8" font-family="Courier,monospace" font-size="14.00" fill="#ffffff"> &#160;&#160;&#160;&#160;&#160;&#160;&#160;&#160;&#160;&#160;&#160;</text>
<text text-anchor="middle" x="239.3988" y="-154.8036" font-family="Courier,monospace" font-size="14.00" fill="#ffffff">Eth0/2</text>
<text text-anchor="middle" x="138.3711" y="-102.8562" font-family="Courier,monospace" font-size="14.00" fill="#ffffff">Eth0/0</text>
</g>
</g>
</svg>
